<mxfile host="app.diagrams.net" modified="2023-12-24T07:49:10.587Z" agent="Mozilla/5.0 (Windows NT 10.0; Win64; x64) AppleWebKit/537.36 (KHTML, like Gecko) Chrome/120.0.0.0 Safari/537.36" etag="hEA-VCPDvTCIhOjWgLoT" version="22.1.11" type="device">
  <diagram id="R2lEEEUBdFMjLlhIrx00" name="Page-1">
    <mxGraphModel dx="794" dy="420" grid="1" gridSize="10" guides="1" tooltips="1" connect="1" arrows="1" fold="1" page="1" pageScale="1" pageWidth="850" pageHeight="1100" math="0" shadow="0" extFonts="Permanent Marker^https://fonts.googleapis.com/css?family=Permanent+Marker">
      <root>
        <mxCell id="0" />
        <mxCell id="1" parent="0" />
        <mxCell id="pnoQH0rQs41gETqYRIPJ-1" value="Employee" style="whiteSpace=wrap;html=1;align=center;" vertex="1" parent="1">
          <mxGeometry x="184" y="278" width="100" height="40" as="geometry" />
        </mxCell>
        <mxCell id="pnoQH0rQs41gETqYRIPJ-4" value="" style="endArrow=none;html=1;rounded=0;exitX=0.5;exitY=0;exitDx=0;exitDy=0;" edge="1" parent="1" source="pnoQH0rQs41gETqYRIPJ-21">
          <mxGeometry width="50" height="50" relative="1" as="geometry">
            <mxPoint x="224" y="288" as="sourcePoint" />
            <mxPoint x="234" y="238" as="targetPoint" />
          </mxGeometry>
        </mxCell>
        <mxCell id="pnoQH0rQs41gETqYRIPJ-5" value="" style="endArrow=none;html=1;rounded=0;exitX=1;exitY=0;exitDx=0;exitDy=0;" edge="1" parent="1" source="pnoQH0rQs41gETqYRIPJ-18">
          <mxGeometry width="50" height="50" relative="1" as="geometry">
            <mxPoint x="244" y="288" as="sourcePoint" />
            <mxPoint x="304" y="238" as="targetPoint" />
          </mxGeometry>
        </mxCell>
        <mxCell id="pnoQH0rQs41gETqYRIPJ-6" value="" style="endArrow=none;html=1;rounded=0;exitX=1;exitY=1;exitDx=0;exitDy=0;" edge="1" parent="1" source="pnoQH0rQs41gETqYRIPJ-1">
          <mxGeometry width="50" height="50" relative="1" as="geometry">
            <mxPoint x="294" y="288" as="sourcePoint" />
            <mxPoint x="304" y="358" as="targetPoint" />
          </mxGeometry>
        </mxCell>
        <mxCell id="pnoQH0rQs41gETqYRIPJ-7" value="" style="endArrow=none;html=1;rounded=0;exitX=0.5;exitY=1;exitDx=0;exitDy=0;entryX=0.5;entryY=0;entryDx=0;entryDy=0;" edge="1" parent="1" source="pnoQH0rQs41gETqYRIPJ-1" target="pnoQH0rQs41gETqYRIPJ-22">
          <mxGeometry width="50" height="50" relative="1" as="geometry">
            <mxPoint x="294" y="328" as="sourcePoint" />
            <mxPoint x="234" y="358" as="targetPoint" />
          </mxGeometry>
        </mxCell>
        <mxCell id="pnoQH0rQs41gETqYRIPJ-15" value="" style="endArrow=none;html=1;rounded=0;exitX=0;exitY=1;exitDx=0;exitDy=0;entryX=1;entryY=0;entryDx=0;entryDy=0;" edge="1" parent="1" source="pnoQH0rQs41gETqYRIPJ-1" target="pnoQH0rQs41gETqYRIPJ-19">
          <mxGeometry width="50" height="50" relative="1" as="geometry">
            <mxPoint x="219" y="328" as="sourcePoint" />
            <mxPoint x="165" y="358" as="targetPoint" />
          </mxGeometry>
        </mxCell>
        <mxCell id="pnoQH0rQs41gETqYRIPJ-16" value="" style="endArrow=none;html=1;rounded=0;exitX=0;exitY=0;exitDx=0;exitDy=0;" edge="1" parent="1" source="pnoQH0rQs41gETqYRIPJ-1">
          <mxGeometry width="50" height="50" relative="1" as="geometry">
            <mxPoint x="194" y="328" as="sourcePoint" />
            <mxPoint x="165" y="248" as="targetPoint" />
          </mxGeometry>
        </mxCell>
        <mxCell id="pnoQH0rQs41gETqYRIPJ-17" value="" style="endArrow=none;html=1;rounded=0;exitX=0;exitY=0.5;exitDx=0;exitDy=0;entryX=1;entryY=0.5;entryDx=0;entryDy=0;" edge="1" parent="1" source="pnoQH0rQs41gETqYRIPJ-1" target="pnoQH0rQs41gETqYRIPJ-23">
          <mxGeometry width="50" height="50" relative="1" as="geometry">
            <mxPoint x="219" y="328" as="sourcePoint" />
            <mxPoint x="165" y="298" as="targetPoint" />
          </mxGeometry>
        </mxCell>
        <mxCell id="pnoQH0rQs41gETqYRIPJ-19" value="last_name" style="ellipse;whiteSpace=wrap;html=1;align=center;" vertex="1" parent="1">
          <mxGeometry x="80" y="358" width="70" height="40" as="geometry" />
        </mxCell>
        <mxCell id="pnoQH0rQs41gETqYRIPJ-20" value="birthdate" style="ellipse;whiteSpace=wrap;html=1;align=center;" vertex="1" parent="1">
          <mxGeometry x="295" y="348" width="80" height="40" as="geometry" />
        </mxCell>
        <mxCell id="pnoQH0rQs41gETqYRIPJ-22" value="first_name" style="ellipse;whiteSpace=wrap;html=1;align=center;" vertex="1" parent="1">
          <mxGeometry x="225" y="358" width="70" height="40" as="geometry" />
        </mxCell>
        <mxCell id="pnoQH0rQs41gETqYRIPJ-23" value="sex" style="ellipse;whiteSpace=wrap;html=1;align=center;" vertex="1" parent="1">
          <mxGeometry x="85" y="258" width="60" height="40" as="geometry" />
        </mxCell>
        <mxCell id="pnoQH0rQs41gETqYRIPJ-24" value="hire_date" style="ellipse;whiteSpace=wrap;html=1;align=center;" vertex="1" parent="1">
          <mxGeometry x="114" y="218" width="70" height="40" as="geometry" />
        </mxCell>
        <mxCell id="pnoQH0rQs41gETqYRIPJ-25" value="" style="endArrow=none;html=1;rounded=0;exitX=1;exitY=0;exitDx=0;exitDy=0;" edge="1" parent="1" source="pnoQH0rQs41gETqYRIPJ-1" target="pnoQH0rQs41gETqYRIPJ-18">
          <mxGeometry width="50" height="50" relative="1" as="geometry">
            <mxPoint x="284" y="278" as="sourcePoint" />
            <mxPoint x="304" y="238" as="targetPoint" />
          </mxGeometry>
        </mxCell>
        <mxCell id="pnoQH0rQs41gETqYRIPJ-18" value="emp_title" style="ellipse;whiteSpace=wrap;html=1;align=center;" vertex="1" parent="1">
          <mxGeometry x="275" y="218" width="80" height="40" as="geometry" />
        </mxCell>
        <mxCell id="pnoQH0rQs41gETqYRIPJ-26" value="" style="endArrow=none;html=1;rounded=0;exitX=0.5;exitY=0;exitDx=0;exitDy=0;" edge="1" parent="1" source="pnoQH0rQs41gETqYRIPJ-1" target="pnoQH0rQs41gETqYRIPJ-21">
          <mxGeometry width="50" height="50" relative="1" as="geometry">
            <mxPoint x="234" y="278" as="sourcePoint" />
            <mxPoint x="234" y="238" as="targetPoint" />
          </mxGeometry>
        </mxCell>
        <mxCell id="pnoQH0rQs41gETqYRIPJ-21" value="emp_no" style="ellipse;whiteSpace=wrap;html=1;align=center;fontStyle=4;" vertex="1" parent="1">
          <mxGeometry x="193" y="208" width="76" height="40" as="geometry" />
        </mxCell>
        <mxCell id="pnoQH0rQs41gETqYRIPJ-27" value="Department" style="whiteSpace=wrap;html=1;align=center;" vertex="1" parent="1">
          <mxGeometry x="618" y="278" width="100" height="40" as="geometry" />
        </mxCell>
        <mxCell id="pnoQH0rQs41gETqYRIPJ-30" value="" style="endArrow=none;html=1;rounded=0;exitX=0.5;exitY=1;exitDx=0;exitDy=0;entryX=0.5;entryY=0;entryDx=0;entryDy=0;" edge="1" parent="1" target="pnoQH0rQs41gETqYRIPJ-27">
          <mxGeometry width="50" height="50" relative="1" as="geometry">
            <mxPoint x="668" y="258" as="sourcePoint" />
            <mxPoint x="738" y="355" as="targetPoint" />
          </mxGeometry>
        </mxCell>
        <mxCell id="pnoQH0rQs41gETqYRIPJ-31" value="" style="endArrow=none;html=1;rounded=0;exitX=0.5;exitY=1;exitDx=0;exitDy=0;" edge="1" parent="1" source="pnoQH0rQs41gETqYRIPJ-37">
          <mxGeometry width="50" height="50" relative="1" as="geometry">
            <mxPoint x="728" y="325" as="sourcePoint" />
            <mxPoint x="668" y="355" as="targetPoint" />
          </mxGeometry>
        </mxCell>
        <mxCell id="pnoQH0rQs41gETqYRIPJ-45" value="Works In" style="shape=rhombus;perimeter=rhombusPerimeter;whiteSpace=wrap;html=1;align=center;" vertex="1" parent="1">
          <mxGeometry x="405" y="208" width="120" height="60" as="geometry" />
        </mxCell>
        <mxCell id="pnoQH0rQs41gETqYRIPJ-50" value="" style="endArrow=none;html=1;rounded=0;entryX=0;entryY=0.5;entryDx=0;entryDy=0;" edge="1" parent="1" target="pnoQH0rQs41gETqYRIPJ-45">
          <mxGeometry relative="1" as="geometry">
            <mxPoint x="285" y="298" as="sourcePoint" />
            <mxPoint x="665" y="338" as="targetPoint" />
          </mxGeometry>
        </mxCell>
        <mxCell id="pnoQH0rQs41gETqYRIPJ-51" value="N" style="resizable=0;html=1;whiteSpace=wrap;align=right;verticalAlign=bottom;" connectable="0" vertex="1" parent="pnoQH0rQs41gETqYRIPJ-50">
          <mxGeometry x="1" relative="1" as="geometry" />
        </mxCell>
        <mxCell id="pnoQH0rQs41gETqYRIPJ-52" value="" style="endArrow=none;html=1;rounded=0;exitX=1;exitY=0.5;exitDx=0;exitDy=0;entryX=0;entryY=0.25;entryDx=0;entryDy=0;" edge="1" parent="1" source="pnoQH0rQs41gETqYRIPJ-45" target="pnoQH0rQs41gETqYRIPJ-27">
          <mxGeometry relative="1" as="geometry">
            <mxPoint x="505" y="338" as="sourcePoint" />
            <mxPoint x="665" y="338" as="targetPoint" />
          </mxGeometry>
        </mxCell>
        <mxCell id="pnoQH0rQs41gETqYRIPJ-53" value="1" style="resizable=0;html=1;whiteSpace=wrap;align=right;verticalAlign=bottom;" connectable="0" vertex="1" parent="pnoQH0rQs41gETqYRIPJ-52">
          <mxGeometry x="1" relative="1" as="geometry" />
        </mxCell>
        <mxCell id="pnoQH0rQs41gETqYRIPJ-54" value="" style="endArrow=none;html=1;rounded=0;exitX=0.5;exitY=1;exitDx=0;exitDy=0;" edge="1" parent="1" source="pnoQH0rQs41gETqYRIPJ-27" target="pnoQH0rQs41gETqYRIPJ-37">
          <mxGeometry width="50" height="50" relative="1" as="geometry">
            <mxPoint x="668" y="318" as="sourcePoint" />
            <mxPoint x="668" y="355" as="targetPoint" />
          </mxGeometry>
        </mxCell>
        <mxCell id="pnoQH0rQs41gETqYRIPJ-37" value="dept_name" style="ellipse;whiteSpace=wrap;html=1;align=center;" vertex="1" parent="1">
          <mxGeometry x="633" y="338" width="70" height="40" as="geometry" />
        </mxCell>
        <mxCell id="pnoQH0rQs41gETqYRIPJ-59" value="Manages" style="shape=rhombus;perimeter=rhombusPerimeter;whiteSpace=wrap;html=1;align=center;" vertex="1" parent="1">
          <mxGeometry x="405" y="308" width="120" height="60" as="geometry" />
        </mxCell>
        <mxCell id="pnoQH0rQs41gETqYRIPJ-63" value="" style="endArrow=none;html=1;rounded=0;exitX=1;exitY=0.75;exitDx=0;exitDy=0;entryX=0;entryY=0.5;entryDx=0;entryDy=0;" edge="1" parent="1" source="pnoQH0rQs41gETqYRIPJ-1" target="pnoQH0rQs41gETqYRIPJ-59">
          <mxGeometry relative="1" as="geometry">
            <mxPoint x="355" y="348" as="sourcePoint" />
            <mxPoint x="515" y="348" as="targetPoint" />
          </mxGeometry>
        </mxCell>
        <mxCell id="pnoQH0rQs41gETqYRIPJ-64" value="1" style="resizable=0;html=1;whiteSpace=wrap;align=right;verticalAlign=bottom;" connectable="0" vertex="1" parent="pnoQH0rQs41gETqYRIPJ-63">
          <mxGeometry x="1" relative="1" as="geometry" />
        </mxCell>
        <mxCell id="pnoQH0rQs41gETqYRIPJ-69" value="" style="shape=link;html=1;rounded=0;exitX=1;exitY=0.5;exitDx=0;exitDy=0;" edge="1" parent="1" source="pnoQH0rQs41gETqYRIPJ-59" target="pnoQH0rQs41gETqYRIPJ-27">
          <mxGeometry relative="1" as="geometry">
            <mxPoint x="355" y="348" as="sourcePoint" />
            <mxPoint x="515" y="348" as="targetPoint" />
          </mxGeometry>
        </mxCell>
        <mxCell id="pnoQH0rQs41gETqYRIPJ-70" value="1" style="resizable=0;html=1;whiteSpace=wrap;align=right;verticalAlign=bottom;" connectable="0" vertex="1" parent="pnoQH0rQs41gETqYRIPJ-69">
          <mxGeometry x="1" relative="1" as="geometry" />
        </mxCell>
        <mxCell id="pnoQH0rQs41gETqYRIPJ-71" value="" style="endArrow=none;html=1;rounded=0;exitX=0.25;exitY=1;exitDx=0;exitDy=0;" edge="1" parent="1" source="pnoQH0rQs41gETqYRIPJ-72">
          <mxGeometry width="50" height="50" relative="1" as="geometry">
            <mxPoint x="244" y="328" as="sourcePoint" />
            <mxPoint x="185" y="378" as="targetPoint" />
          </mxGeometry>
        </mxCell>
        <mxCell id="pnoQH0rQs41gETqYRIPJ-73" value="" style="endArrow=none;html=1;rounded=0;exitX=0.25;exitY=1;exitDx=0;exitDy=0;" edge="1" parent="1" source="pnoQH0rQs41gETqYRIPJ-1" target="pnoQH0rQs41gETqYRIPJ-72">
          <mxGeometry width="50" height="50" relative="1" as="geometry">
            <mxPoint x="209" y="318" as="sourcePoint" />
            <mxPoint x="185" y="378" as="targetPoint" />
          </mxGeometry>
        </mxCell>
        <mxCell id="pnoQH0rQs41gETqYRIPJ-72" value="Salary" style="ellipse;whiteSpace=wrap;html=1;align=center;" vertex="1" parent="1">
          <mxGeometry x="155" y="358" width="70" height="40" as="geometry" />
        </mxCell>
        <mxCell id="pnoQH0rQs41gETqYRIPJ-74" value="dept_no" style="ellipse;whiteSpace=wrap;html=1;align=center;fontStyle=4;" vertex="1" parent="1">
          <mxGeometry x="630" y="218" width="76" height="40" as="geometry" />
        </mxCell>
        <mxCell id="pnoQH0rQs41gETqYRIPJ-76" value="Title" style="ellipse;whiteSpace=wrap;html=1;align=center;" vertex="1" parent="1">
          <mxGeometry x="85" y="308" width="60" height="40" as="geometry" />
        </mxCell>
        <mxCell id="pnoQH0rQs41gETqYRIPJ-78" value="" style="endArrow=none;html=1;rounded=0;entryX=1;entryY=0.5;entryDx=0;entryDy=0;" edge="1" parent="1" target="pnoQH0rQs41gETqYRIPJ-76">
          <mxGeometry width="50" height="50" relative="1" as="geometry">
            <mxPoint x="185" y="308" as="sourcePoint" />
            <mxPoint x="155" y="318" as="targetPoint" />
          </mxGeometry>
        </mxCell>
      </root>
    </mxGraphModel>
  </diagram>
</mxfile>
